<?xml version="1.0" encoding="utf-8"?>
<!-- Generator: Adobe Illustrator 23.0.1, SVG Export Plug-In . SVG Version: 6.00 Build 0)  -->
<svg version="1.0" id="圖層_1" xmlns="http://www.w3.org/2000/svg" xmlns:xlink="http://www.w3.org/1999/xlink" x="0px" y="0px"
	 viewBox="0 0 136 126" style="enable-background:new 0 0 136 126;" xml:space="preserve">
<style type="text/css">
	.st0{fill:#FCD810;}
</style>
<g>
	<g>
		<path class="st0" d="M48.32,113.63c-13.57-2.69-21.55-11.68-24.85-24.82c-2.16-8.6-2.27-17.61-1.38-26.39
			c1.57-15.51,6.81-33.83,19.39-44.07c6.21-5.05,14.02-7.03,21.93-5.94c11.72,1.62,21.64,9.67,33.62,10.1
			c3.01,0.11,5.98-0.4,8.85-1.29c3.13-0.97,6.97-3.6,9.62-0.54c3.98,4.58,5.97,11.96,7.21,17.74c2.71,12.66,0.97,26.45-4.61,38.11
			C106.2,101.4,75.79,118.03,48.32,113.63c-5.99-0.96-8.57,8.2-2.53,9.17c28.73,4.61,59.56-9.42,75.84-33.36
			c8.16-12,12.28-26.84,11.77-41.32c-0.26-7.51-1.71-15.04-4.51-22.02c-2.32-5.8-5.49-13.71-11.97-15.83
			c-7.17-2.34-13.48,3.27-20.64,2.67c-7.79-0.66-14.91-5.1-22.18-7.62C63.94,1.8,52.84,1.54,43,6.2
			c-18.28,8.66-26.69,30.9-29.57,49.61c-4.11,26.7,1.11,60.78,32.36,66.99C51.77,123.98,54.33,114.82,48.32,113.63z"/>
	</g>
</g>
<g>
	<g>
		<path class="st0" d="M15.64,43.77c-3.33,0.21-6.64,0.14-9.96-0.21c-2.56-0.27-4.76,2.38-4.76,4.76c0,2.79,2.19,4.49,4.76,4.76
			c3.32,0.35,6.63,0.42,9.96,0.21c2.56-0.16,4.76-2.07,4.76-4.76C20.39,46.07,18.21,43.61,15.64,43.77L15.64,43.77z"/>
	</g>
</g>
<g>
	<g>
		<path class="st0" d="M51.62,48.12c6.12,0,6.13-9.51,0-9.51C45.5,38.6,45.49,48.12,51.62,48.12L51.62,48.12z"/>
	</g>
</g>
</svg>
