<?xml version="1.0" encoding="utf-8"?>
<!-- Generator: Adobe Illustrator 23.0.1, SVG Export Plug-In . SVG Version: 6.00 Build 0)  -->
<svg version="1.0" id="圖層_1" xmlns="http://www.w3.org/2000/svg" xmlns:xlink="http://www.w3.org/1999/xlink" x="0px" y="0px"
	 viewBox="0 0 171.28 142.8" style="enable-background:new 0 0 171.28 142.8;" xml:space="preserve">
<style type="text/css">
	.st0{fill:#FCD810;}
</style>
<g>
	<g>
		<path class="st0" d="M28.37,123.92C5.51,107.79,6.76,74.05,17.36,51.13C28.6,26.84,51.65,9.86,79.03,10.96
			c15.54,0.63,28.65,7.27,40.78,16.54c11.09,8.48,21.44,16.63,35.23,20.06c3.51,0.87,5.63,1.41,5.83,5.44
			c0.19,3.64-0.23,7.44-0.84,11.01c-1.2,6.94-3.48,13.69-6.69,19.95c-6.47,12.62-16.25,23.3-28.12,31.04
			c-14.35,9.36-31.13,14.74-48.09,16.68C60.64,133.58,42.71,133.29,28.37,123.92c-5.14-3.36-9.91,4.87-4.8,8.21
			c14.53,9.49,32.54,10.89,49.43,9.48c16.83-1.41,33.44-5.61,48.48-13.41c14.88-7.72,27.72-19.13,36.64-33.37
			c7.91-12.62,14.44-30.21,11.98-45.36c-1.26-7.75-7.74-9.84-14.44-11.52c-8.13-2.04-15.09-6.54-21.75-11.51
			C120.19,16.21,107.56,6,90.24,2.75c-31.72-5.94-62.16,9.7-77.91,37.41C-3.89,68.69-5.9,111.34,23.57,132.13
			C28.58,135.67,33.34,127.43,28.37,123.92z"/>
	</g>
</g>
<g>
	<g>
		<path class="st0" d="M67.84,43.57c6.12,0,6.13-9.51,0-9.51C61.72,34.06,61.71,43.57,67.84,43.57L67.84,43.57z"/>
	</g>
</g>
<g>
	<g>
		<path class="st0" d="M26.51,21.02c-3.97-3.28-7.95-6.55-11.92-9.83c-1.98-1.63-4.79-1.94-6.73,0c-1.68,1.68-1.99,5.08,0,6.73
			c3.97,3.28,7.95,6.55,11.92,9.83c1.98,1.63,4.79,1.94,6.73,0C28.2,26.06,28.5,22.66,26.51,21.02L26.51,21.02z"/>
	</g>
</g>
</svg>
