<?xml version="1.0" encoding="utf-8"?>
<!-- Generator: Adobe Illustrator 23.0.1, SVG Export Plug-In . SVG Version: 6.00 Build 0)  -->
<svg version="1.0" id="圖層_1" xmlns="http://www.w3.org/2000/svg" xmlns:xlink="http://www.w3.org/1999/xlink" x="0px" y="0px"
	 viewBox="0 0 129.42 116.56" style="enable-background:new 0 0 129.42 116.56;" xml:space="preserve">
<style type="text/css">
	.st0{fill:#FCD810;}
</style>
<g>
	<g>
		<path class="st0" d="M97.21,111.03c23.07-9.79,36.18-32.9,31.13-57.73C123.41,29.08,103,9.13,79.27,3.11
			C67.63,0.16,54.58,0.59,44.13,7.04c-11.01,6.8-15.09,18.27-20.45,29.35c-2.73,5.65-5.98,10.96-11.26,14.55
			c-4.74,3.23-10.19,6.09-11.9,12.03c-1.81,6.28,1.51,12.46,4.31,17.88c2.83,5.47,6.03,10.75,9.77,15.65
			c8.85,11.59,19.84,18.78,34.4,20.64c15.69,2.01,32.36,0.17,47.09-5.64c5.63-2.22,3.18-11.42-2.53-9.17
			c-11.38,4.49-23.6,6.4-35.81,6.01c-10.94-0.35-20.84-2.56-29.02-10.21c-7.53-7.04-13.27-16.37-17.51-25.71
			c-1.18-2.61-2.54-5.49-0.87-8.18c1.2-1.94,3.83-3.14,5.7-4.35c4.35-2.81,7.97-6.08,10.99-10.31c6.03-8.43,8.3-18.94,14.38-27.31
			c6.17-8.5,16.29-11.9,26.5-11.39c20.83,1.04,40.5,16.26,48.34,35.29c4.29,10.4,5.18,22.23,1.07,32.83
			c-4.43,11.42-13.89,19.13-24.92,23.81C86.8,105.2,91.64,113.39,97.21,111.03z"/>
	</g>
</g>
<g>
	<g>
		<path class="st0" d="M84.88,42.56c6.12,0,6.13-9.51,0-9.51C78.76,33.05,78.75,42.56,84.88,42.56L84.88,42.56z"/>
	</g>
</g>
<g>
	<g>
		<path class="st0" d="M115.3,26.52c0.17-0.52,0.17-0.5-0.02,0.05c0.09-0.17,0.2-0.34,0.31-0.5c0.19-0.27,0.15-0.22-0.12,0.16
			c0.14-0.16,0.29-0.32,0.44-0.48c0.76-0.73,1.51-1.49,2.25-2.25c2.21-2.29,4.06-4.87,5.44-7.73c1.12-2.31,0.63-5.14-1.71-6.51
			c-2.08-1.22-5.38-0.62-6.51,1.71c-1.31,2.72-2.93,4.8-5.05,6.9c-1.83,1.81-3.37,3.64-4.2,6.13
			C104.19,29.81,113.38,32.31,115.3,26.52L115.3,26.52z"/>
	</g>
</g>
</svg>
