<?xml version="1.0" encoding="utf-8"?>
<!-- Generator: Adobe Illustrator 23.0.1, SVG Export Plug-In . SVG Version: 6.00 Build 0)  -->
<svg version="1.0" id="圖層_1" xmlns="http://www.w3.org/2000/svg" xmlns:xlink="http://www.w3.org/1999/xlink" x="0px" y="0px"
	 viewBox="0 0 159 142.8" style="enable-background:new 0 0 159 142.8;" xml:space="preserve">
<style type="text/css">
	.st0{fill:#FCD810;}
</style>
<g>
	<g>
		<path class="st0" d="M64.83,132.57c-14.65-1.87-27.77-8.86-37.62-19.82c-9.57-10.65-16.94-26.32-15.52-40.92
			c0.49-5.02,1.98-5.75,6.64-6.23c5.13-0.53,10.31-1.01,14.86-3.66C43.24,56.1,47.13,44.22,52.87,34.8
			c14.68-24.14,46.94-31.36,70.6-16.26c24.24,15.46,28.46,46.49,16.99,71.33C127.25,118.47,96.06,135.78,64.83,132.57
			c-6.08-0.62-6.04,8.89,0,9.51c31.43,3.23,63.67-13.04,79.95-40.1c15.87-26.38,16.33-62.47-7.27-84.52
			c-23.28-21.74-59.4-21.69-82.7,0c-5.62,5.24-9.76,11.52-13.34,18.25c-3.06,5.74-5.94,12.46-11.12,16.66
			c-8.33,6.76-22.59,0.32-26.94,12.77c-2.97,8.51-1.1,19.01,1.58,27.35c2.75,8.56,7,16.47,12.59,23.51
			c11.82,14.9,28.51,23.68,47.26,26.07C70.89,142.85,70.83,133.34,64.83,132.57z"/>
	</g>
</g>
<g>
	<g>
		<path class="st0" d="M115.66,46.26c6.12,0,6.13-9.51,0-9.51C109.54,36.75,109.53,46.26,115.66,46.26L115.66,46.26z"/>
	</g>
</g>
<g>
	<g>
		<path class="st0" d="M140.47,21.7c2.06-2.4,4.11-4.8,6.17-7.2c1.62-1.89,1.99-4.9,0-6.73c-1.78-1.63-5-2.02-6.73,0
			c-2.06,2.4-4.11,4.8-6.17,7.2c-1.62,1.89-1.99,4.9,0,6.73C135.52,23.33,138.74,23.72,140.47,21.7L140.47,21.7z"/>
	</g>
</g>
</svg>
