<?xml version="1.0" encoding="utf-8"?>
<!-- Generator: Adobe Illustrator 23.0.1, SVG Export Plug-In . SVG Version: 6.00 Build 0)  -->
<svg version="1.0" id="圖層_1" xmlns="http://www.w3.org/2000/svg" xmlns:xlink="http://www.w3.org/1999/xlink" x="0px" y="0px"
	 viewBox="0 0 182.15 157.4" style="enable-background:new 0 0 182.15 157.4;" xml:space="preserve">
<style type="text/css">
	.st0{fill:#FCD810;}
</style>
<g>
	<g>
		<path class="st0" d="M60.53,144.46c-31.55-6.25-40.44-49.91-35.77-76.9c2.43-14.02,8.14-26.72,19.78-35.35
			c10.26-7.6,23.05-12.15,35.73-13.36c16.02-1.53,31.31,3.99,47.19,4.59c6.98,0.26,14.23-0.51,20.79-3.01
			c3.2-1.22,6.19-2.75,8.93-4.8c1.12-0.84,2.12-1.86,3.24-2.7c1.14-0.85,0.14-1.21,1.15-0.65c0.58,0.32,1.14,2.12,1.43,2.71
			c13.59,27.68,7.09,62.05-11.09,86.01c-10.07,13.28-23.56,23.74-38.32,31.32C97.89,140.38,78.37,147.29,60.53,144.46
			c-5.99-0.95-8.57,8.21-2.53,9.17c18.3,2.91,36.75-2.4,53.4-9.76c15.36-6.79,29.63-16.54,41.09-28.87
			c23.18-24.96,34-61.95,22.83-94.87c-2.09-6.15-5.22-17.19-12.87-18.15c-4.12-0.52-6.5,2.26-9.31,4.74
			c-3.35,2.96-7.43,4.8-11.73,5.91C123.33,17.29,105,8.91,86.82,9c-14.77,0.08-29.95,4.23-42.55,11.96
			C30.8,29.22,21.95,41.24,17.57,56.37c-5.48,18.96-4.34,40.06,2.3,58.57c6.51,18.16,18.19,34.73,38.13,38.68
			C63.98,154.81,66.54,145.64,60.53,144.46z"/>
	</g>
</g>
<g>
	<g>
		<path class="st0" d="M15.93,69.29c-3.87,0-7.73,0-11.6,0c-6.12,0-6.13,9.51,0,9.51c3.87,0,7.73,0,11.6,0
			C22.05,78.8,22.06,69.29,15.93,69.29L15.93,69.29z"/>
	</g>
</g>
<g>
	<g>
		<path class="st0" d="M62.33,70.77c6.12,0,6.13-9.51,0-9.51C56.21,61.26,56.2,70.77,62.33,70.77L62.33,70.77z"/>
	</g>
</g>
</svg>
