<?xml version="1.0" encoding="utf-8"?>
<!-- Generator: Adobe Illustrator 23.0.1, SVG Export Plug-In . SVG Version: 6.00 Build 0)  -->
<svg version="1.0" id="圖層_1" xmlns="http://www.w3.org/2000/svg" xmlns:xlink="http://www.w3.org/1999/xlink" x="0px" y="0px"
	 viewBox="0 0 153 116.56" style="enable-background:new 0 0 153 116.56;" xml:space="preserve">
<style type="text/css">
	.st0{fill:#FCD810;}
</style>
<g>
	<g>
		<path class="st0" d="M22.62,84.71c-11.94-19.21-8.26-42.85,7.45-58.73c7.11-7.18,16.1-12.39,25.92-14.8
			c11.48-2.82,22.2-0.6,33.26,2.84c12.22,3.8,23.62,6.81,36.29,3.34c2.37-0.65,5.96-2.16,8.38-0.94c2.37,1.19,3.52,4.67,4.38,7
			c2.44,6.59,3.32,13.6,2.84,20.6c-1.69,24.68-20.5,44.78-42.1,54.8C73.77,110.52,39.43,109.87,22.62,84.71
			c-3.38-5.06-11.63-0.31-8.21,4.8c34.91,52.24,122.08,19.94,134.7-34.91c3.04-13.23,2.54-30.29-5.53-41.83
			c-4.01-5.73-10.12-6.99-16.67-5.61c-3.64,0.76-7.08,2.2-10.82,2.46c-3.88,0.27-7.73-0.24-11.51-1.1
			C90.32,5.29,77.14-1.02,62.16,0.54c-11.98,1.25-23.24,5.9-32.71,13.32C6.34,31.97-1.43,64.04,14.4,89.51
			C17.63,94.69,25.86,89.92,22.62,84.71z"/>
	</g>
</g>
<g>
	<g>
		<path class="st0" d="M26.16,26.64c-1.99-5.12-5.16-9.21-9.67-12.34C14.37,12.83,11.2,13.9,9.98,16c-1.38,2.36-0.41,5.04,1.71,6.51
			c2.28,1.58,4.32,4.13,5.3,6.66c0.93,2.39,3.19,4.05,5.85,3.32C25.12,31.86,27.09,29.04,26.16,26.64L26.16,26.64z"/>
	</g>
</g>
<g>
	<g>
		<path class="st0" d="M57.06,45.08c6.12,0,6.13-9.51,0-9.51C50.94,35.57,50.93,45.08,57.06,45.08L57.06,45.08z"/>
	</g>
</g>
</svg>
