<?xml version="1.0" encoding="utf-8"?>
<!-- Generator: Adobe Illustrator 23.0.1, SVG Export Plug-In . SVG Version: 6.00 Build 0)  -->
<svg version="1.0" id="圖層_1" xmlns="http://www.w3.org/2000/svg" xmlns:xlink="http://www.w3.org/1999/xlink" x="0px" y="0px"
	 viewBox="0 0 189 157" style="enable-background:new 0 0 189 157;" xml:space="preserve">
<style type="text/css">
	.st0{fill:#FCD810;}
</style>
<g>
	<g>
		<path class="st0" d="M57.09,142.94c-17.44-5.72-28.3-18.53-32.63-36.23c-3.05-12.45-2.93-25.65-0.3-38.17
			c4.92-23.36,19.16-47.31,42.87-55.31c6.24-2.1,12.85-3.13,19.44-2.85c8.36,0.35,16,4.31,23.27,8.1
			c7.16,3.73,14.28,7.57,22.07,9.83c8.94,2.6,18.36,5.82,27.8,5.39c1.88-0.09,3.77-0.34,5.61-0.69c1.92-0.37,4.29-1.65,6.24-1.53
			c4.42,0.26,4.43,5.73,5,9.08c1.35,7.91,1.91,15.99,1.28,24c-1.28,16.26-8.57,31.36-18.69,43.97
			C135.57,137.78,93.73,153.93,57.09,142.94c-5.87-1.76-8.39,7.41-2.53,9.17c36.49,10.95,78.23-2.68,104.52-29.36
			c12.63-12.81,22.84-29.21,26.57-46.96c1.81-8.6,2.23-17.43,1.49-26.18c-0.66-7.74-0.67-19.24-7.15-24.59
			c-7.63-6.3-16.92-0.11-25.59-0.98c-10.14-1.02-21.37-4.55-30.53-8.97c-8.52-4.12-16.65-9.2-25.71-12.11
			c-7.92-2.54-16.19-2.51-24.34-1.2C44.65,6.48,24.58,31.83,16.76,58.94c-4.46,15.48-5.38,32.14-2.01,47.92
			c2.26,10.56,6.59,20.79,13.71,28.99c6.89,7.92,16.24,13.02,26.11,16.26C60.4,154.02,62.89,144.84,57.09,142.94z"/>
	</g>
</g>
<g>
	<g>
		<path class="st0" d="M18.95,53.85c-0.59-0.02-1.18-0.04-1.76-0.09c-0.25-0.02-0.77-0.11-0.23-0.02c-0.86-0.14-1.69-0.37-2.52-0.62
			c-2.32-0.7-4.59-1.55-6.9-2.27C1.67,49.02-0.83,58.2,5,60.02c4.68,1.46,8.99,3.19,13.95,3.34C25.07,63.55,25.06,54.04,18.95,53.85
			L18.95,53.85z"/>
	</g>
</g>
<g>
	<g>
		<path class="st0" d="M70.72,55.38c6.12,0,6.13-9.51,0-9.51C64.6,45.87,64.59,55.38,70.72,55.38L70.72,55.38z"/>
	</g>
</g>
</svg>
