<?xml version="1.0" encoding="utf-8"?>
<!-- Generator: Adobe Illustrator 23.0.2, SVG Export Plug-In . SVG Version: 6.00 Build 0)  -->
<svg version="1.0" id="圖層_1" xmlns="http://www.w3.org/2000/svg" xmlns:xlink="http://www.w3.org/1999/xlink" x="0px" y="0px"
	 viewBox="0 0 185 154" style="enable-background:new 0 0 185 154;" xml:space="preserve">
<style type="text/css">
	.st0{fill:#FCD810;}
</style>
<g>
	<g>
		<path class="st0" d="M123.86,152.06c35.64-7.06,47.15-53.49,43.01-84.58c-2.12-15.9-8.11-31.27-20.62-41.81
			c-11.28-9.51-25.53-15.28-40.08-17.34c-7.9-1.12-15.62-1.01-23.53,0.05c-9.92,1.33-19.74,3.88-29.79,4.02
			c-8.5,0.12-17.57-1.48-24.15-7.24c-2.83-2.48-5.17-5.26-9.31-4.74c-3.59,0.45-5.93,3.09-7.67,6.08
			c-17.46,30.08-10.04,70.98,10,97.74c11.28,15.06,26.31,27.04,43.11,35.43C82.79,148.63,103.68,155.27,123.86,152.06
			c6.03-0.96,3.47-10.12-2.53-9.17c-16.17,2.57-33.62-3.02-48.19-9.76c-13.17-6.1-25.34-14.31-35.46-24.76
			C16.59,86.6,6.17,54.55,14.53,24.87c1.03-3.67,2.33-7.28,3.98-10.73c0.54-1.14,1.63-3.71,2.26-3.66c0.41,0.03,2.74,2.66,3.32,3.12
			c5.71,4.43,12.59,6.78,19.7,7.74c16.3,2.21,31.9-3.69,48.06-4.33c25.67-1.03,53.78,11.69,62.32,37.26
			c5.59,16.73,5.23,35.18,0.17,51.99c-5.05,16.75-14.7,33.01-33.01,36.63C115.33,144.08,117.87,153.25,123.86,152.06z"/>
	</g>
</g>
<g>
	<g>
		<path class="st0" d="M165.93,77.24c3.87,0,7.73,0,11.6,0c6.12,0,6.13-9.51,0-9.51c-3.87,0-7.73,0-11.6,0
			C159.81,67.73,159.8,77.24,165.93,77.24L165.93,77.24z"/>
	</g>
</g>
<g>
	<g>
		<path class="st0" d="M119.53,69.21c6.12,0,6.13-9.51,0-9.51C113.41,59.7,113.4,69.21,119.53,69.21L119.53,69.21z"/>
	</g>
</g>
</svg>
