<?xml version="1.0" encoding="utf-8"?>
<!-- Generator: Adobe Illustrator 23.0.1, SVG Export Plug-In . SVG Version: 6.00 Build 0)  -->
<svg version="1.1" id="圖層_1" xmlns="http://www.w3.org/2000/svg" xmlns:xlink="http://www.w3.org/1999/xlink" x="0px" y="0px"
	 viewBox="0 0 742 484" style="enable-background:new 0 0 742 484;" xml:space="preserve">
<style type="text/css">
	.st0{opacity:0.4;}
	.st1{fill:#FCD810;}
</style>
<g class="st0">
	<g>
		<path class="st1" d="M421.1,449.9c-17.4-5.7-28.3-18.5-32.6-36.2c-3-12.5-2.9-25.6-0.3-38.2c4.9-23.4,19.2-47.3,42.9-55.3
			c6.2-2.1,12.9-3.1,19.4-2.9c8.4,0.4,16,4.3,23.3,8.1c7.2,3.7,14.3,7.6,22.1,9.8c8.9,2.6,18.4,5.8,27.8,5.4
			c1.9-0.1,3.8-0.3,5.6-0.7c1.9-0.4,4.3-1.6,6.2-1.5c4.4,0.3,4.4,5.7,5,9.1c1.3,7.9,1.9,16,1.3,24c-1.3,16.3-8.6,31.4-18.7,44
			C499.6,444.8,457.7,460.9,421.1,449.9c-5.9-1.8-8.4,7.4-2.5,9.2c36.5,11,78.2-2.7,104.5-29.4c12.6-12.8,22.8-29.2,26.6-47
			c1.8-8.6,2.2-17.4,1.5-26.2c-0.7-7.7-0.7-19.2-7.2-24.6c-7.6-6.3-16.9-0.1-25.6-1c-10.1-1-21.4-4.5-30.5-9
			c-8.5-4.1-16.6-9.2-25.7-12.1c-7.9-2.5-16.2-2.5-24.3-1.2c-29.2,4.7-49.3,30.1-57.1,57.2c-4.5,15.5-5.4,32.1-2,47.9
			c2.3,10.6,6.6,20.8,13.7,29c6.9,7.9,16.2,13,26.1,16.3C424.4,461,426.9,451.8,421.1,449.9z"/>
	</g>
</g>
<g class="st0">
	<g>
		<path class="st1" d="M383,360.9c-0.6,0-1.2,0-1.8-0.1c-0.3,0-0.8-0.1-0.2,0c-0.9-0.1-1.7-0.4-2.5-0.6c-2.3-0.7-4.6-1.5-6.9-2.3
			c-5.9-1.8-8.4,7.4-2.5,9.2c4.7,1.5,9,3.2,14,3.3C389.1,370.5,389.1,361,383,360.9L383,360.9z"/>
	</g>
</g>
<g class="st0">
	<g>
		<path class="st1" d="M227.3,468.6c-13.6-2.7-21.6-11.7-24.9-24.8c-2.2-8.6-2.3-17.6-1.4-26.4c1.6-15.5,6.8-33.8,19.4-44.1
			c6.2-5,14-7,21.9-5.9c11.7,1.6,21.6,9.7,33.6,10.1c3,0.1,6-0.4,8.9-1.3c3.1-1,7-3.6,9.6-0.5c4,4.6,6,12,7.2,17.7
			c2.7,12.7,1,26.5-4.6,38.1C285.2,456.4,254.8,473,227.3,468.6c-6-1-8.6,8.2-2.5,9.2c28.7,4.6,59.6-9.4,75.8-33.4
			c8.2-12,12.3-26.8,11.8-41.3c-0.3-7.5-1.7-15-4.5-22c-2.3-5.8-5.5-13.7-12-15.8c-7.2-2.3-13.5,3.3-20.6,2.7
			c-7.8-0.7-14.9-5.1-22.2-7.6c-10.2-3.5-21.3-3.8-31.1,0.9c-18.3,8.7-26.7,30.9-29.6,49.6c-4.1,26.7,1.1,60.8,32.4,67
			C230.8,479,233.3,469.8,227.3,468.6z"/>
	</g>
</g>
<g class="st0">
	<g>
		<path class="st1" d="M194.6,398.8c-3.3,0.2-6.6,0.1-10-0.2c-2.6-0.3-4.8,2.4-4.8,4.8c0,2.8,2.2,4.5,4.8,4.8
			c3.3,0.4,6.6,0.4,10,0.2c2.6-0.2,4.8-2.1,4.8-4.8C199.4,401.1,197.2,398.6,194.6,398.8L194.6,398.8z"/>
	</g>
</g>
<g class="st0">
	<g>
		<path class="st1" d="M230.6,403.1c6.1,0,6.1-9.5,0-9.5C224.5,393.6,224.5,403.1,230.6,403.1L230.6,403.1z"/>
	</g>
</g>
<g class="st0">
	<g>
		<path class="st1" d="M434.7,362.4c6.1,0,6.1-9.5,0-9.5C428.6,352.9,428.6,362.4,434.7,362.4L434.7,362.4z"/>
	</g>
</g>
<g class="st0">
	<g>
		<path class="st1" d="M276.8,325.6c-14.6-1.9-27.8-8.9-37.6-19.8c-9.6-10.6-16.9-26.3-15.5-40.9c0.5-5,2-5.8,6.6-6.2
			c5.1-0.5,10.3-1,14.9-3.7c10.1-5.9,13.9-17.7,19.7-27.2c14.7-24.1,46.9-31.4,70.6-16.3c24.2,15.5,28.5,46.5,17,71.3
			C339.3,311.5,308.1,328.8,276.8,325.6c-6.1-0.6-6,8.9,0,9.5c31.4,3.2,63.7-13,79.9-40.1c15.9-26.4,16.3-62.5-7.3-84.5
			c-23.3-21.7-59.4-21.7-82.7,0c-5.6,5.2-9.8,11.5-13.3,18.3c-3.1,5.7-5.9,12.5-11.1,16.7c-8.3,6.8-22.6,0.3-26.9,12.8
			c-3,8.5-1.1,19,1.6,27.4c2.8,8.6,7,16.5,12.6,23.5c11.8,14.9,28.5,23.7,47.3,26.1C282.9,335.9,282.8,326.3,276.8,325.6z"/>
	</g>
</g>
<g class="st0">
	<g>
		<path class="st1" d="M327.7,239.3c6.1,0,6.1-9.5,0-9.5C321.5,229.8,321.5,239.3,327.7,239.3L327.7,239.3z"/>
	</g>
</g>
<g class="st0">
	<g>
		<path class="st1" d="M352.5,214.7c2.1-2.4,4.1-4.8,6.2-7.2c1.6-1.9,2-4.9,0-6.7c-1.8-1.6-5-2-6.7,0c-2.1,2.4-4.1,4.8-6.2,7.2
			c-1.6,1.9-2,4.9,0,6.7C347.5,216.3,350.7,216.7,352.5,214.7L352.5,214.7z"/>
	</g>
</g>
<g class="st0">
	<g>
		<path class="st1" d="M64.5,404.4c-31.5-6.3-40.5-49.9-35.8-76.9c2.4-14,8.1-26.7,19.8-35.4c10.3-7.6,23-12.1,35.7-13.4
			c16-1.5,31.3,4,47.2,4.6c7,0.3,14.2-0.5,20.8-3c3.2-1.2,6.2-2.8,8.9-4.8c1.1-0.8,2.1-1.9,3.2-2.7c1.1-0.9,0.1-1.2,1.2-0.6
			c0.6,0.3,1.1,2.1,1.4,2.7c13.6,27.7,7.1,62-11.1,86c-10.1,13.3-23.6,23.7-38.3,31.3C101.9,400.3,82.4,407.2,64.5,404.4
			c-6-1-8.6,8.2-2.5,9.2c18.3,2.9,36.8-2.4,53.4-9.8c15.4-6.8,29.6-16.5,41.1-28.9c23.2-25,34-62,22.8-94.9
			c-2.1-6.1-5.2-17.2-12.9-18.1c-4.1-0.5-6.5,2.3-9.3,4.7c-3.4,3-7.4,4.8-11.7,5.9c-18.1,4.7-36.4-3.7-54.6-3.6
			c-14.8,0.1-30,4.2-42.5,12c-13.5,8.3-22.3,20.3-26.7,35.4c-5.5,19-4.3,40.1,2.3,58.6c6.5,18.2,18.2,34.7,38.1,38.7
			C68,414.7,70.5,405.5,64.5,404.4z"/>
	</g>
</g>
<g class="st0">
	<g>
		<path class="st1" d="M19.9,329.2c-3.9,0-7.7,0-11.6,0c-6.1,0-6.1,9.5,0,9.5c3.9,0,7.7,0,11.6,0C26,338.7,26.1,329.2,19.9,329.2
			L19.9,329.2z"/>
	</g>
</g>
<g class="st0">
	<g>
		<path class="st1" d="M66.3,330.7c6.1,0,6.1-9.5,0-9.5C60.2,321.1,60.2,330.7,66.3,330.7L66.3,330.7z"/>
	</g>
</g>
<g class="st0">
	<g>
		<path class="st1" d="M429.8,267.8c-22.9-16.1-21.6-49.9-11-72.8c11.2-24.3,34.3-41.3,61.7-40.2c15.5,0.6,28.6,7.3,40.8,16.5
			c11.1,8.5,21.4,16.6,35.2,20.1c3.5,0.9,5.6,1.4,5.8,5.4c0.2,3.6-0.2,7.4-0.8,11c-1.2,6.9-3.5,13.7-6.7,19.9
			c-6.5,12.6-16.3,23.3-28.1,31c-14.3,9.4-31.1,14.7-48.1,16.7C462,277.4,444.1,277.1,429.8,267.8c-5.1-3.4-9.9,4.9-4.8,8.2
			c14.5,9.5,32.5,10.9,49.4,9.5c16.8-1.4,33.4-5.6,48.5-13.4c14.9-7.7,27.7-19.1,36.6-33.4c7.9-12.6,14.4-30.2,12-45.4
			c-1.3-7.8-7.7-9.8-14.4-11.5c-8.1-2-15.1-6.5-21.8-11.5c-13.7-10.2-26.4-20.4-43.7-23.7c-31.7-5.9-62.2,9.7-77.9,37.4
			c-16.2,28.5-18.2,71.2,11.3,92C430,279.5,434.7,271.3,429.8,267.8z"/>
	</g>
</g>
<g class="st0">
	<g>
		<path class="st1" d="M469.2,187.4c6.1,0,6.1-9.5,0-9.5C463.1,177.9,463.1,187.4,469.2,187.4L469.2,187.4z"/>
	</g>
</g>
<g class="st0">
	<g>
		<path class="st1" d="M427.9,164.9c-4-3.3-8-6.6-11.9-9.8c-2-1.6-4.8-1.9-6.7,0c-1.7,1.7-2,5.1,0,6.7c4,3.3,8,6.6,11.9,9.8
			c2,1.6,4.8,1.9,6.7,0C429.6,169.9,429.9,166.5,427.9,164.9L427.9,164.9z"/>
	</g>
</g>
<g class="st0">
	<g>
		<path class="st1" d="M340.9,163.1c35.6-7.1,47.1-53.5,43-84.6c-2.1-15.9-8.1-31.3-20.6-41.8c-11.3-9.5-25.5-15.3-40.1-17.3
			c-7.9-1.1-15.6-1-23.5,0c-9.9,1.3-19.7,3.9-29.8,4c-8.5,0.1-17.6-1.5-24.1-7.2c-2.8-2.5-5.2-5.3-9.3-4.7c-3.6,0.4-5.9,3.1-7.7,6.1
			c-17.5,30.1-10,71,10,97.7c11.3,15.1,26.3,27,43.1,35.4C299.8,159.6,320.7,166.3,340.9,163.1c6-1,3.5-10.1-2.5-9.2
			c-16.2,2.6-33.6-3-48.2-9.8c-13.2-6.1-25.3-14.3-35.5-24.8c-21.1-21.8-31.5-53.8-23.1-83.5c1-3.7,2.3-7.3,4-10.7
			c0.5-1.1,1.6-3.7,2.3-3.7c0.4,0,2.7,2.7,3.3,3.1c5.7,4.4,12.6,6.8,19.7,7.7c16.3,2.2,31.9-3.7,48.1-4.3
			c25.7-1,53.8,11.7,62.3,37.3c5.6,16.7,5.2,35.2,0.2,52c-5,16.8-14.7,33-33,36.6C332.3,155.1,334.9,164.3,340.9,163.1z"/>
	</g>
</g>
<g class="st0">
	<g>
		<path class="st1" d="M382.9,88.2c3.9,0,7.7,0,11.6,0c6.1,0,6.1-9.5,0-9.5c-3.9,0-7.7,0-11.6,0C376.8,78.7,376.8,88.2,382.9,88.2
			L382.9,88.2z"/>
	</g>
</g>
<g class="st0">
	<g>
		<path class="st1" d="M336.5,80.2c6.1,0,6.1-9.5,0-9.5C330.4,70.7,330.4,80.2,336.5,80.2L336.5,80.2z"/>
	</g>
</g>
<g class="st0">
	<g>
		<path class="st1" d="M232.9,198.3c7.5-14.5,6.1-29.8-3.4-43c-6.6-9.2-15.3-16.6-24.9-22.5c-17.1-10.6-40.7-19-60.2-10.2
			c-10.3,4.7-17.1,14.1-20.8,24.6c-2.1,6.1-3.2,12.6-6,18.4c-3,6.3-8.2,7.9-13,12.3c-10.6,9.6,1.3,26.2,8.3,34.4
			c8.7,10.1,20.6,17.6,33.4,21.4C178.3,243.1,216.5,227.3,232.9,198.3c3-5.3-5.2-10.1-8.2-4.8c-12.8,22.6-40.9,36.1-66.6,33
			c-11.4-1.4-22.6-6.3-31.4-13.8c-4.1-3.5-7.8-7.4-10.8-11.9c-2.7-4-9.1-12.8-4.2-16.6c3.8-3,7.9-4.9,10.9-8.9
			c3.2-4.2,5.1-9.3,6.6-14.4c3-9.8,5.3-20,13.8-26.6c13.8-10.8,34-5.2,48.1,1.8c20.6,10.2,46.6,32,33.5,57.3
			C221.9,198.9,230.1,203.7,232.9,198.3z"/>
	</g>
</g>
<g class="st0">
	<g>
		<path class="st1" d="M197.4,131.2c2.5-2.8,4.8-5.7,6.8-8.9c1.4-2.2,0.4-5.2-1.7-6.5c-2.3-1.3-5.1-0.5-6.5,1.7
			c-1.7,2.7-3.2,4.7-5.3,6.9c-1.7,1.9-1.9,4.9,0,6.7C192.4,132.9,195.6,133.1,197.4,131.2L197.4,131.2z"/>
	</g>
</g>
<g class="st0">
	<g>
		<path class="st1" d="M167.5,157.5c6.1,0,6.1-9.5,0-9.5C161.4,147.9,161.4,157.5,167.5,157.5L167.5,157.5z"/>
	</g>
</g>
<g class="st0">
	<g>
		<path class="st1" d="M612.9,350.9c-14.7-1.9-27.8-8.9-37.6-19.8c-9.6-10.6-16.9-26.3-15.5-40.9c0.5-5,2-5.8,6.6-6.2
			c5.1-0.5,10.3-1,14.9-3.7c10.1-5.9,14-17.7,19.7-27.2c14.7-24.1,46.9-31.4,70.6-16.3c24.2,15.5,28.5,46.5,17,71.3
			C675.3,336.8,644.1,354.1,612.9,350.9c-6.1-0.6-6,8.9,0,9.5c31.4,3.2,63.7-13,80-40.1c15.9-26.4,16.3-62.5-7.3-84.5
			c-23.3-21.7-59.4-21.7-82.7,0c-5.6,5.2-9.8,11.5-13.3,18.3c-3.1,5.7-5.9,12.5-11.1,16.7c-8.3,6.8-22.6,0.3-26.9,12.8
			c-3,8.5-1.1,19,1.6,27.4c2.8,8.6,7,16.5,12.6,23.5c11.8,14.9,28.5,23.7,47.3,26.1C618.9,361.2,618.9,351.7,612.9,350.9z"/>
	</g>
</g>
<g class="st0">
	<g>
		<path class="st1" d="M663.7,264.6c6.1,0,6.1-9.5,0-9.5C657.6,255.1,657.6,264.6,663.7,264.6L663.7,264.6z"/>
	</g>
</g>
<g class="st0">
	<g>
		<path class="st1" d="M688.5,240.1c2.1-2.4,4.1-4.8,6.2-7.2c1.6-1.9,2-4.9,0-6.7c-1.8-1.6-5-2-6.7,0c-2.1,2.4-4.1,4.8-6.2,7.2
			c-1.6,1.9-2,4.9,0,6.7C683.6,241.7,686.8,242.1,688.5,240.1L688.5,240.1z"/>
	</g>
</g>
<g class="st0">
	<g>
		<path class="st1" d="M531,117.1c23.1-9.8,36.2-32.9,31.1-57.7c-4.9-24.2-25.3-44.2-49.1-50.2c-11.6-2.9-24.7-2.5-35.1,3.9
			c-11,6.8-15.1,18.3-20.5,29.3c-2.7,5.7-6,11-11.3,14.5c-4.7,3.2-10.2,6.1-11.9,12c-1.8,6.3,1.5,12.5,4.3,17.9
			c2.8,5.5,6,10.8,9.8,15.7c8.9,11.6,19.8,18.8,34.4,20.6c15.7,2,32.4,0.2,47.1-5.6c5.6-2.2,3.2-11.4-2.5-9.2
			c-11.4,4.5-23.6,6.4-35.8,6c-10.9-0.3-20.8-2.6-29-10.2c-7.5-7-13.3-16.4-17.5-25.7c-1.2-2.6-2.5-5.5-0.9-8.2
			c1.2-1.9,3.8-3.1,5.7-4.3c4.4-2.8,8-6.1,11-10.3c6-8.4,8.3-18.9,14.4-27.3c6.2-8.5,16.3-11.9,26.5-11.4
			c20.8,1,40.5,16.3,48.3,35.3c4.3,10.4,5.2,22.2,1.1,32.8c-4.4,11.4-13.9,19.1-24.9,23.8C520.6,111.3,525.5,119.5,531,117.1z"/>
	</g>
</g>
<g class="st0">
	<g>
		<path class="st1" d="M518.7,48.6c6.1,0,6.1-9.5,0-9.5C512.6,39.1,512.6,48.6,518.7,48.6L518.7,48.6z"/>
	</g>
</g>
<g class="st0">
	<g>
		<path class="st1" d="M549.1,32.6C549.3,32.1,549.3,32.1,549.1,32.6c0.1-0.1,0.2-0.3,0.3-0.5c0.2-0.3,0.2-0.2-0.1,0.2
			c0.1-0.2,0.3-0.3,0.4-0.5c0.8-0.7,1.5-1.5,2.3-2.3c2.2-2.3,4.1-4.9,5.4-7.7c1.1-2.3,0.6-5.1-1.7-6.5c-2.1-1.2-5.4-0.6-6.5,1.7
			c-1.3,2.7-2.9,4.8-5,6.9c-1.8,1.8-3.4,3.6-4.2,6.1C538,35.9,547.2,38.4,549.1,32.6L549.1,32.6z"/>
	</g>
</g>
<g class="st0">
	<g>
		<path class="st1" d="M605.6,160.9c-11.9-19.2-8.3-42.9,7.5-58.7c7.1-7.2,16.1-12.4,25.9-14.8c11.5-2.8,22.2-0.6,33.3,2.8
			c12.2,3.8,23.6,6.8,36.3,3.3c2.4-0.7,6-2.2,8.4-0.9c2.4,1.2,3.5,4.7,4.4,7c2.4,6.6,3.3,13.6,2.8,20.6
			c-1.7,24.7-20.5,44.8-42.1,54.8C656.8,186.8,622.4,186.1,605.6,160.9c-3.4-5.1-11.6-0.3-8.2,4.8c34.9,52.2,122.1,19.9,134.7-34.9
			c3-13.2,2.5-30.3-5.5-41.8c-4-5.7-10.1-7-16.7-5.6c-3.6,0.8-7.1,2.2-10.8,2.5c-3.9,0.3-7.7-0.2-11.5-1.1
			c-14.3-3.2-27.4-9.5-42.4-8c-12,1.3-23.2,5.9-32.7,13.3c-23.1,18.1-30.9,50.2-15,75.7C600.6,170.9,608.9,166.2,605.6,160.9z"/>
	</g>
</g>
<g class="st0">
	<g>
		<path class="st1" d="M609.2,102.9c-2-5.1-5.2-9.2-9.7-12.3c-2.1-1.5-5.3-0.4-6.5,1.7c-1.4,2.4-0.4,5,1.7,6.5
			c2.3,1.6,4.3,4.1,5.3,6.7c0.9,2.4,3.2,4.1,5.8,3.3C608.1,108.1,610.1,105.3,609.2,102.9L609.2,102.9z"/>
	</g>
</g>
<g class="st0">
	<g>
		<path class="st1" d="M640.1,121.3c6.1,0,6.1-9.5,0-9.5C633.9,111.8,633.9,121.3,640.1,121.3L640.1,121.3z"/>
	</g>
</g>
</svg>
