<?xml version="1.0" encoding="utf-8"?>
<!-- Generator: Adobe Illustrator 23.0.2, SVG Export Plug-In . SVG Version: 6.00 Build 0)  -->
<svg version="1.0" id="圖層_1" xmlns="http://www.w3.org/2000/svg" xmlns:xlink="http://www.w3.org/1999/xlink" x="0px" y="0px"
	 viewBox="0 0 355 281" style="enable-background:new 0 0 355 281;" xml:space="preserve">
<style type="text/css">
	.st0{opacity:0.5;}
	.st1{fill:#FCF5CD;}
</style>
<g class="st0">
	<path class="st1" d="M302.12,46.54c18.58,12.29,33.79,29.67,43.37,49.79c9.17,19.26,13.17,41.78,6.76,62.13
		c-6.41,20.35-24.69,37.57-45.98,38.8c-23.32,1.34-46.17-15.53-68.69-9.35c-21.64,5.93-31.99,29.65-45.45,47.61
		c-29.54,39.42-95.63,63.71-137.46,28.58c-16.42-13.79-26.1-35.26-25.55-56.7c0.6-23.28,12.41-44.99,14.27-68.2
		c1.31-16.42-2.57-33.23-10.95-47.41C22.78,75.44,6.8,60.8,7.15,41.81C7.58,18.51,33.07,3.36,56.26,1.02
		c30.57-3.08,60.63,7.56,90.9,12.82c48.9,8.5,101.72,3.54,145.46,27.01C295.87,42.61,299.04,44.5,302.12,46.54z"/>
</g>
</svg>
