<?xml version="1.0" encoding="utf-8"?>
<!-- Generator: Adobe Illustrator 23.0.2, SVG Export Plug-In . SVG Version: 6.00 Build 0)  -->
<svg version="1.0" id="圖層_1" xmlns="http://www.w3.org/2000/svg" xmlns:xlink="http://www.w3.org/1999/xlink" x="0px" y="0px"
	 viewBox="0 0 496 310" style="enable-background:new 0 0 496 310;" xml:space="preserve">
<style type="text/css">
	.st0{opacity:0.5;}
	.st1{fill:#FCF5CD;}
</style>
<g class="st0">
	<path class="st1" d="M27.21,253.79c-11.59-13.17-20.3-28.7-24.27-45.75c-18.44-79.2,57.17-99.28,119.12-95.84
		c32.4,1.8,65.95,5.33,96.43-5.79c52.88-19.3,83.32-77.63,135.42-98.95C391.71-8,438.76,0.27,467.24,29.55
		c35.63,36.63,36.36,97.73,12.09,142.69c-24.27,44.96-68.57,75.85-114.86,97.48c-70.69,33.02-150.7,48.14-227.81,36.26
		c-29.02-4.47-57.89-12.89-82.47-28.95C44.25,270.56,35.07,262.72,27.21,253.79z"/>
</g>
</svg>
