<?xml version="1.0" encoding="utf-8"?>
<!-- Generator: Adobe Illustrator 23.0.2, SVG Export Plug-In . SVG Version: 6.00 Build 0)  -->
<svg version="1.0" id="圖層_1" xmlns="http://www.w3.org/2000/svg" xmlns:xlink="http://www.w3.org/1999/xlink" x="0px" y="0px"
	 viewBox="0 0 284 338" style="enable-background:new 0 0 284 338;" xml:space="preserve">
<style type="text/css">
	.st0{opacity:0.5;}
	.st1{fill:#FCF5CD;}
</style>
<g class="st0">
	<path class="st1" d="M67.21,44.59c13.87-17.43,32.52-31.05,53.41-38.83c19.99-7.45,42.78-9.45,62.48-1.28s35.26,27.89,34.61,49.21
		c-0.71,23.35-19.52,44.63-15.34,67.61c4.01,22.08,26.73,34.47,43.43,49.45c36.68,32.89,55.07,100.85,16.41,139.43
		c-15.18,15.15-37.42,22.9-58.72,20.47c-23.13-2.64-43.73-16.31-66.69-20.2c-16.25-2.75-33.32-0.36-48.19,6.74
		c-17.14,8.19-33.11,22.83-52,20.81c-23.17-2.47-36.03-29.19-36.32-52.5c-0.39-30.73,12.85-59.73,20.75-89.42
		C33.8,148.12,33.5,95.07,60.71,53.56C62.74,50.47,64.91,47.48,67.21,44.59z"/>
</g>
</svg>
