<?xml version="1.0" encoding="utf-8"?>
<!-- Generator: Adobe Illustrator 23.0.1, SVG Export Plug-In . SVG Version: 6.00 Build 0)  -->
<svg version="1.1" id="圖層_1" xmlns="http://www.w3.org/2000/svg" xmlns:xlink="http://www.w3.org/1999/xlink" x="0px" y="0px"
	 viewBox="0 0 91.7 81.5" style="enable-background:new 0 0 91.7 81.5;" xml:space="preserve">
<style type="text/css">
	.st0{fill:none;stroke:#4D4D4D;stroke-width:2;stroke-miterlimit:10;}
	.st1{fill:none;stroke:#4D4D4D;stroke-width:2;stroke-linecap:round;stroke-linejoin:round;stroke-miterlimit:10;}
</style>
<g>
	<path class="st0" d="M1,75.9V28.7c0-2.5,2.1-4.6,4.6-4.6h80.5c2.5,0,4.6,2.1,4.6,4.6v47.2c0,2.5-2.1,4.6-4.6,4.6H5.6
		C3.1,80.5,1,78.4,1,75.9z"/>
	<path class="st0" d="M1.2,30.2c-0.8-2.4,0.6-5,3.1-5.8L15.5,21L79.2,1.2c2.4-0.8,5,0.6,5.8,3.1l1.7,5.5c0.8,2.4-0.6,5-3.1,5.8
		l-20,6.2L56.3,24"/>
	<line class="st0" x1="65.7" y1="5.4" x2="70.5" y2="19.7"/>
	<line class="st0" x1="74.3" y1="2.3" x2="79.1" y2="16.6"/>
	<line class="st0" x1="57.1" y1="8.3" x2="61.9" y2="22.6"/>
	<line class="st0" x1="48.5" y1="11.3" x2="52.8" y2="24.1"/>
	<line class="st0" x1="39.9" y1="14.2" x2="43.2" y2="24.1"/>
	<line class="st0" x1="30.8" y1="16.6" x2="33.3" y2="24.1"/>
	<line class="st0" x1="22" y1="18.4" x2="23.7" y2="24.1"/>
	<path class="st1" d="M38.6,41.8l16.7,8.7c1.3,0.7,1.3,2.6,0,3.2l-16.7,8.1c-1.2,0.6-2.6-0.3-2.6-1.6V43.4
		C36,42.1,37.4,41.2,38.6,41.8z"/>
	<line class="st1" x1="81.9" y1="32.5" x2="55.7" y2="32.5"/>
	<line class="st1" x1="81.9" y1="37.6" x2="66.7" y2="37.6"/>
	<line class="st1" x1="8.7" y1="73.3" x2="34.9" y2="73.3"/>
	<line class="st1" x1="8.7" y1="68.1" x2="23.9" y2="68.1"/>
</g>
</svg>
