<?xml version="1.0" encoding="utf-8"?>
<!-- Generator: Adobe Illustrator 23.0.1, SVG Export Plug-In . SVG Version: 6.00 Build 0)  -->
<svg version="1.1" id="圖層_1" xmlns="http://www.w3.org/2000/svg" xmlns:xlink="http://www.w3.org/1999/xlink" x="0px" y="0px"
	 viewBox="0 0 91.4 74.3" style="enable-background:new 0 0 91.4 74.3;" xml:space="preserve">
<style type="text/css">
	.st0{fill:none;stroke:#4D4D4D;stroke-width:2;stroke-miterlimit:10;}
	.st1{fill:none;stroke:#4D4D4D;stroke-width:2;stroke-linecap:round;stroke-linejoin:round;stroke-miterlimit:10;}
</style>
<g>
	<path class="st0" d="M85.3,11.3H68.2c0-0.7,0-1.4-0.2-2.1L67,5c-0.6-2.4-2.2-4-4.1-4H28.8c-1.8,0-3.3,1.4-4,3.6l-1.3,4.2
		c-0.3,0.9-0.4,1.7-0.3,2.6H6.1c-2.8,0-5.1,2.3-5.1,5.1v51.7c0,2.8,2.3,5.1,5.1,5.1h79.2c2.8,0,5.1-2.3,5.1-5.1V16.3
		C90.3,13.5,88.1,11.3,85.3,11.3z"/>
	<circle class="st0" cx="53.4" cy="42.1" r="22.5"/>
	<circle class="st0" cx="53.4" cy="42.1" r="16.4"/>
	<path class="st1" d="M23.1,24.5H9c-0.1,0-0.1-0.1-0.1-0.1v-4.6c0-0.1,0.1-0.1,0.1-0.1h14.2c0.1,0,0.1,0.1,0.1,0.1v4.6
		C23.3,24.5,23.2,24.5,23.1,24.5z"/>
</g>
</svg>
