<?xml version="1.0" encoding="utf-8"?>
<!-- Generator: Adobe Illustrator 23.0.1, SVG Export Plug-In . SVG Version: 6.00 Build 0)  -->
<svg version="1.1" id="圖層_1" xmlns="http://www.w3.org/2000/svg" xmlns:xlink="http://www.w3.org/1999/xlink" x="0px" y="0px"
	 viewBox="0 0 92.1 61.8" style="enable-background:new 0 0 92.1 61.8;" xml:space="preserve">
<style type="text/css">
	.st0{fill:none;stroke:#4D4D4D;stroke-width:2;stroke-miterlimit:10;}
	.st1{fill:none;stroke:#4D4D4D;stroke-width:2;stroke-linecap:round;stroke-linejoin:round;stroke-miterlimit:10;}
</style>
<g>
	<path class="st0" d="M71.8,29.3c1,0.9,1,2.4,0,3.2C67.8,36.1,57.3,44,45,44s-22.7-8-26.8-11.5c-1-0.9-1-2.4,0-3.2
		c4-3.5,14.5-11.5,26.8-11.5S67.8,25.8,71.8,29.3z"/>
	<circle class="st0" cx="45" cy="30.9" r="8.8"/>
	<g>
		<path class="st1" d="M91.1,13.4v44.1c0,1.8-1.5,3.3-3.3,3.3H4.3c-1.8,0-3.3-1.5-3.3-3.3V4.3C1,2.5,2.5,1,4.3,1h74.5
			c0.5,0,1,0.2,1.4,0.6L90.5,12C90.9,12.4,91.1,12.9,91.1,13.4z"/>
		<path class="st1" d="M90.9,12.4l-11-11.1c-0.1-0.1-0.3,0-0.3,0.1L78,10.9c-0.3,1.9,1.3,3.6,3.2,3.3l9.5-1.4
			C90.9,12.7,91,12.5,90.9,12.4z"/>
	</g>
	<line class="st1" x1="8.5" y1="7.8" x2="30.5" y2="7.8"/>
	<line class="st1" x1="8.5" y1="14.2" x2="20.3" y2="14.2"/>
	<line class="st1" x1="82" y1="53.3" x2="57.9" y2="53.3"/>
	<line class="st1" x1="82" y1="46.9" x2="68.1" y2="46.9"/>
</g>
</svg>
