<?xml version="1.0" encoding="utf-8"?>
<!-- Generator: Adobe Illustrator 23.0.1, SVG Export Plug-In . SVG Version: 6.00 Build 0)  -->
<svg version="1.1" id="圖層_1" xmlns="http://www.w3.org/2000/svg" xmlns:xlink="http://www.w3.org/1999/xlink" x="0px" y="0px"
	 viewBox="0 0 91.2 65.4" style="enable-background:new 0 0 91.2 65.4;" xml:space="preserve">
<style type="text/css">
	.st0{fill:none;stroke:#4D4D4D;stroke-width:2;stroke-miterlimit:10;}
	.st1{fill:none;stroke:#4D4D4D;stroke-width:2;stroke-linecap:round;stroke-miterlimit:10;}
	.st2{fill:none;stroke:#4D4D4D;stroke-width:2;stroke-linecap:round;stroke-linejoin:round;stroke-miterlimit:10;}
</style>
<g>
	<g>
		<path class="st0" d="M24.8,64.4H4.4C2.5,64.4,1,62.9,1,61V20.6c0-1.9,1.5-3.4,3.4-3.4h20.4c1.9,0,3.4,1.5,3.4,3.4V61
			C28.2,62.9,26.7,64.4,24.8,64.4z"/>
		<path class="st1" d="M12.3,13.5V4.9c0-2.1,1.8-3.9,3.9-3.9h70.1c2.1,0,3.9,1.8,3.9,3.9V51c0,2.1-1.8,3.9-3.9,3.9H31.8"/>
		<line class="st0" x1="12.2" y1="8.7" x2="89.8" y2="8.7"/>
		<line class="st2" x1="76.8" y1="5" x2="76.8" y2="5"/>
		<line class="st2" x1="80.3" y1="5" x2="80.3" y2="5"/>
		<line class="st2" x1="83.8" y1="5" x2="83.8" y2="5"/>
		<line class="st2" x1="58.2" y1="46.7" x2="84.1" y2="46.7"/>
		<line class="st2" x1="70.5" y1="39.4" x2="84.1" y2="39.4"/>
	</g>
	<path class="st2" d="M49.2,28.6H40c-0.2,0-0.4-0.2-0.4-0.4V19c0-0.2,0.2-0.4,0.4-0.4h9.2c0.2,0,0.4,0.2,0.4,0.4v9.2
		C49.6,28.5,49.4,28.6,49.2,28.6z"/>
</g>
</svg>
